<?xml version="1.0" encoding="utf-8"?>
<!-- Svg Vector Icons : http://www.onlinewebfonts.com/icon -->
<!DOCTYPE svg PUBLIC "-//W3C//DTD SVG 1.1//EN" "http://www.w3.org/Graphics/SVG/1.1/DTD/svg11.dtd">
<svg version="1.1" xmlns="http://www.w3.org/2000/svg" xmlns:xlink="http://www.w3.org/1999/xlink" x="0px" y="0px" viewBox="0 0 1000 1000" enable-background="new 0 0 1000 1000" xml:space="preserve">
<metadata> Svg Vector Icons : http://www.onlinewebfonts.com/icon </metadata>
<g><path d="M951,461H539V49.1c0-21.6-17.5-39-39-39c-21.6,0-39,17.5-39,39V461H49c-21.6,0-39,17.5-39,39c0,21.6,17.5,39,39,39H461v411.9c0,21.6,17.5,39,39,39c21.6,0,39-17.5,39-39V539H951c21.6,0,39-17.5,39-39C990,478.4,972.5,461,951,461z"/></g>
</svg>